<svg width="406" height="20" viewBox="0 0 406 20" fill="none" xmlns="http://www.w3.org/2000/svg">
<path opacity="0.5" d="M6.83477 15.2547C5.47477 15.2547 4.28143 14.9547 3.25477 14.3547C2.2281 13.7547 1.4281 12.9414 0.854766 11.9147C0.281432 10.888 -0.0052343 9.73469 -0.0052343 8.45469C-0.0052343 7.16135 0.281432 6.00802 0.854766 4.99469C1.4281 3.96802 2.2281 3.15469 3.25477 2.55469C4.28143 1.95469 5.47477 1.65469 6.83477 1.65469C8.19477 1.65469 9.3881 1.95469 10.4148 2.55469C11.4414 3.15469 12.2414 3.96802 12.8148 4.99469C13.3881 6.00802 13.6748 7.16135 13.6748 8.45469C13.6748 9.73469 13.3881 10.888 12.8148 11.9147C12.2414 12.9414 11.4414 13.7547 10.4148 14.3547C9.3881 14.9547 8.19477 15.2547 6.83477 15.2547ZM6.83477 13.9547C7.91477 13.9547 8.86143 13.7147 9.67477 13.2347C10.4881 12.7414 11.1214 12.0814 11.5748 11.2547C12.0281 10.4147 12.2548 9.48135 12.2548 8.45469C12.2548 7.42802 12.0281 6.50135 11.5748 5.67469C11.1214 4.83469 10.4881 4.17469 9.67477 3.69469C8.86143 3.20135 7.91477 2.95469 6.83477 2.95469C5.7681 2.95469 4.82143 3.20135 3.99477 3.69469C3.18143 4.17469 2.5481 4.83469 2.09477 5.67469C1.64143 6.50135 1.41477 7.42802 1.41477 8.45469C1.41477 9.48135 1.64143 10.4147 2.09477 11.2547C2.5481 12.0814 3.18143 12.7414 3.99477 13.2347C4.82143 13.7147 5.7681 13.9547 6.83477 13.9547ZM6.97477 12.1947C5.84143 12.1947 4.9481 11.868 4.29477 11.2147C3.65477 10.548 3.33477 9.64135 3.33477 8.49469C3.33477 7.34802 3.65477 6.44802 4.29477 5.79469C4.9481 5.12802 5.84143 4.79469 6.97477 4.79469C7.76143 4.79469 8.41477 4.96802 8.93477 5.31469C9.45477 5.64802 9.84143 6.10802 10.0948 6.69469L8.93477 7.27469C8.76143 6.84802 8.51477 6.52802 8.19477 6.31469C7.87477 6.10135 7.46143 5.99469 6.95477 5.99469C6.2481 5.99469 5.6881 6.21469 5.27477 6.65469C4.87477 7.09469 4.67477 7.70802 4.67477 8.49469C4.67477 9.28135 4.87477 9.89469 5.27477 10.3347C5.6881 10.7747 6.2481 10.9947 6.95477 10.9947C7.4881 10.9947 7.9281 10.888 8.27477 10.6747C8.63477 10.448 8.90143 10.108 9.07477 9.65469L10.1748 10.0947C9.92143 10.748 9.5281 11.2614 8.99477 11.6347C8.46143 12.008 7.7881 12.1947 6.97477 12.1947ZM33.7366 15.0547H32.0366L30.6366 11.3947H24.6566L23.2566 15.0547H21.5766L26.7166 1.85469H28.6166L33.7366 15.0547ZM25.2366 9.89469H30.0566L27.6366 3.39469L25.2366 9.89469ZM37.6398 0.454687V12.5147C37.6398 13.0214 37.7331 13.3747 37.9198 13.5747C38.1064 13.7614 38.4064 13.8547 38.8198 13.8547C39.0864 13.8547 39.3064 13.8347 39.4798 13.7947C39.6531 13.7547 39.8864 13.6814 40.1798 13.5747L39.9198 14.9747C39.7064 15.068 39.4731 15.1347 39.2198 15.1747C38.9664 15.228 38.7064 15.2547 38.4398 15.2547C37.6264 15.2547 37.0198 15.0347 36.6198 14.5947C36.2331 14.1547 36.0398 13.4814 36.0398 12.5747V0.454687H37.6398ZM43.753 0.454687V12.5147C43.753 13.0214 43.8464 13.3747 44.033 13.5747C44.2197 13.7614 44.5197 13.8547 44.933 13.8547C45.1997 13.8547 45.4197 13.8347 45.593 13.7947C45.7664 13.7547 45.9997 13.6814 46.293 13.5747L46.033 14.9747C45.8197 15.068 45.5864 15.1347 45.333 15.1747C45.0797 15.228 44.8197 15.2547 44.553 15.2547C43.7397 15.2547 43.133 15.0347 42.733 14.5947C42.3464 14.1547 42.153 13.4814 42.153 12.5747V0.454687H43.753ZM59.7596 1.85469C61.1063 1.85469 62.1863 2.20135 62.9996 2.89469C63.8129 3.58802 64.2196 4.52802 64.2196 5.71469C64.2196 6.90135 63.8063 7.82802 62.9796 8.49469C62.1663 9.14802 61.0863 9.47469 59.7396 9.47469L59.5996 9.57469H56.3596V15.0547H54.7596V1.85469H59.7596ZM59.7396 8.07469C60.6863 8.07469 61.3863 7.88135 61.8396 7.49469C62.3063 7.09469 62.5396 6.50135 62.5396 5.71469C62.5396 4.92802 62.3063 4.34135 61.8396 3.95469C61.3863 3.55469 60.6863 3.35469 59.7396 3.35469H56.3596V8.07469H59.7396ZM60.6596 8.39469L65.0196 15.0547H63.1196L59.3196 9.27469L60.6596 8.39469ZM68.4627 3.13469C68.1027 3.13469 67.8094 3.02802 67.5827 2.81469C67.3694 2.58802 67.2627 2.29469 67.2627 1.93469C67.2627 1.57469 67.3694 1.28802 67.5827 1.07469C67.8094 0.84802 68.1027 0.734687 68.4627 0.734687C68.8227 0.734687 69.1094 0.84802 69.3227 1.07469C69.5494 1.28802 69.6627 1.57469 69.6627 1.93469C69.6627 2.29469 69.5494 2.58802 69.3227 2.81469C69.1094 3.02802 68.8227 3.13469 68.4627 3.13469ZM69.2627 5.05469V15.0547H67.6627V5.05469H69.2627ZM81.3952 3.21469L81.7552 4.63469C81.7419 4.63469 81.7219 4.63469 81.6952 4.63469C81.6686 4.63469 81.6419 4.63469 81.6152 4.63469C80.9619 4.63469 80.4552 4.76802 80.0952 5.03469C79.7486 5.28802 79.5752 5.70135 79.5752 6.27469L78.5952 5.77469C78.5952 5.25469 78.7152 4.80135 78.9552 4.41469C79.1952 4.02802 79.5219 3.73469 79.9352 3.53469C80.3486 3.32135 80.8019 3.21469 81.2952 3.21469C81.3086 3.21469 81.3219 3.21469 81.3352 3.21469C81.3619 3.21469 81.3819 3.21469 81.3952 3.21469ZM78.3552 13.7747C79.3019 13.7747 80.0419 13.9947 80.5752 14.4347C81.1086 14.8614 81.3752 15.4347 81.3752 16.1547C81.3752 16.808 81.1552 17.3747 80.7152 17.8547C80.2886 18.3347 79.7086 18.7014 78.9752 18.9547C78.2552 19.2214 77.4419 19.3547 76.5352 19.3547C74.9619 19.3547 73.7819 19.088 72.9952 18.5547C72.2219 18.0214 71.8352 17.3814 71.8352 16.6347C71.8352 16.1014 72.0086 15.6214 72.3552 15.1947C72.7152 14.7814 73.3152 14.548 74.1552 14.4947L74.0152 14.7947C73.5619 14.6747 73.1752 14.4747 72.8552 14.1947C72.5486 13.9014 72.3952 13.4814 72.3952 12.9347C72.3952 12.388 72.5952 11.9214 72.9952 11.5347C73.4086 11.1347 74.0152 10.888 74.8152 10.7947L75.8752 11.3347H75.6752C75.0219 11.4014 74.5552 11.568 74.2752 11.8347C74.0086 12.088 73.8752 12.368 73.8752 12.6747C73.8752 13.048 74.0086 13.328 74.2752 13.5147C74.5552 13.688 74.9419 13.7747 75.4352 13.7747H78.3552ZM76.5152 18.0147C77.2886 18.0147 77.9219 17.9347 78.4152 17.7747C78.9219 17.6147 79.2952 17.408 79.5352 17.1547C79.7752 16.9014 79.8952 16.628 79.8952 16.3347C79.8952 15.9747 79.7486 15.688 79.4552 15.4747C79.1752 15.2614 78.6619 15.1547 77.9152 15.1547H74.8352C74.4086 15.1547 74.0486 15.2614 73.7552 15.4747C73.4619 15.7014 73.3152 16.008 73.3152 16.3947C73.3152 16.888 73.5952 17.2814 74.1552 17.5747C74.7286 17.868 75.5152 18.0147 76.5152 18.0147ZM76.3752 4.85469C77.1752 4.85469 77.8819 5.00135 78.4952 5.29469C79.1219 5.57469 79.6086 5.96802 79.9552 6.47469C80.3019 6.98135 80.4752 7.56802 80.4752 8.23469C80.4752 8.88802 80.3019 9.47469 79.9552 9.99469C79.6086 10.5014 79.1219 10.9014 78.4952 11.1947C77.8819 11.4747 77.1752 11.6147 76.3752 11.6147C75.0552 11.6147 74.0419 11.3014 73.3352 10.6747C72.6286 10.0347 72.2752 9.22135 72.2752 8.23469C72.2752 7.56802 72.4486 6.98135 72.7952 6.47469C73.1552 5.96802 73.6419 5.57469 74.2552 5.29469C74.8686 5.00135 75.5752 4.85469 76.3752 4.85469ZM76.3752 6.15469C75.6819 6.15469 75.1019 6.34802 74.6352 6.73469C74.1686 7.10802 73.9352 7.60802 73.9352 8.23469C73.9352 8.84802 74.1686 9.34802 74.6352 9.73469C75.1019 10.1214 75.6819 10.3147 76.3752 10.3147C77.0686 10.3147 77.6486 10.1214 78.1152 9.73469C78.5819 9.34802 78.8152 8.84802 78.8152 8.23469C78.8152 7.60802 78.5819 7.10802 78.1152 6.73469C77.6486 6.34802 77.0686 6.15469 76.3752 6.15469ZM83.6198 15.0547V0.454687H85.2198V6.55469C85.5664 5.95469 86.0264 5.52135 86.5998 5.25469C87.1731 4.98802 87.7998 4.85469 88.4798 4.85469C89.1998 4.85469 89.8531 4.99469 90.4398 5.27469C91.0264 5.54135 91.4931 5.95469 91.8398 6.51469C92.1998 7.07469 92.3798 7.78802 92.3798 8.65469V15.0547H90.7798V9.21469C90.7798 8.10802 90.5398 7.34135 90.0598 6.91469C89.5931 6.47469 89.0131 6.25469 88.3198 6.25469C87.8398 6.25469 87.3598 6.36802 86.8798 6.59469C86.3998 6.82135 85.9998 7.19469 85.6798 7.71469C85.3731 8.22135 85.2198 8.90135 85.2198 9.75469V15.0547H83.6198ZM98.2259 2.21469V12.2947C98.2259 12.788 98.3659 13.1547 98.6459 13.3947C98.9259 13.6347 99.2859 13.7547 99.7259 13.7547C100.113 13.7547 100.446 13.688 100.726 13.5547C101.006 13.4214 101.259 13.2414 101.486 13.0147L102.046 14.3547C101.739 14.6347 101.373 14.8547 100.946 15.0147C100.533 15.1747 100.053 15.2547 99.5059 15.2547C98.9992 15.2547 98.5259 15.168 98.0859 14.9947C97.6459 14.808 97.2925 14.5214 97.0259 14.1347C96.7725 13.7347 96.6392 13.2147 96.6259 12.5747V2.65469L98.2259 2.21469ZM101.866 5.05469V6.43469H94.6259V5.05469H101.866ZM107.845 15.2547C106.871 15.2547 105.971 15.048 105.145 14.6347C104.331 14.2214 103.705 13.6347 103.265 12.8747L104.625 11.8947C104.918 12.508 105.345 12.988 105.905 13.3347C106.478 13.6814 107.165 13.8547 107.965 13.8547C108.671 13.8547 109.225 13.7214 109.625 13.4547C110.025 13.1747 110.225 12.8147 110.225 12.3747C110.225 12.0947 110.131 11.8414 109.945 11.6147C109.771 11.3747 109.431 11.2014 108.925 11.0947L106.525 10.5947C105.551 10.3947 104.851 10.0614 104.425 9.59469C104.011 9.12802 103.805 8.54802 103.805 7.85469C103.805 7.30802 103.958 6.80802 104.265 6.35469C104.585 5.90135 105.031 5.54135 105.605 5.27469C106.191 4.99469 106.878 4.85469 107.665 4.85469C108.651 4.85469 109.485 5.04802 110.165 5.43469C110.845 5.82135 111.351 6.36802 111.685 7.07469L110.345 7.95469C110.118 7.36802 109.751 6.94135 109.245 6.67469C108.738 6.39469 108.211 6.25469 107.665 6.25469C107.185 6.25469 106.771 6.32135 106.425 6.45469C106.091 6.58802 105.831 6.77469 105.645 7.01469C105.471 7.24135 105.385 7.50135 105.385 7.79469C105.385 8.08802 105.485 8.36135 105.685 8.61469C105.885 8.85469 106.258 9.02802 106.805 9.13469L109.305 9.65469C110.238 9.84135 110.891 10.148 111.265 10.5747C111.638 11.0014 111.825 11.5214 111.825 12.1347C111.825 12.7614 111.658 13.3147 111.325 13.7947C110.991 14.2614 110.525 14.6214 109.925 14.8747C109.325 15.128 108.631 15.2547 107.845 15.2547ZM126.908 1.85469C128.255 1.85469 129.335 2.20135 130.148 2.89469C130.961 3.58802 131.368 4.52802 131.368 5.71469C131.368 6.90135 130.955 7.82802 130.128 8.49469C129.315 9.14802 128.235 9.47469 126.888 9.47469L126.748 9.57469H123.508V15.0547H121.908V1.85469H126.908ZM126.888 8.07469C127.835 8.07469 128.535 7.88135 128.988 7.49469C129.455 7.09469 129.688 6.50135 129.688 5.71469C129.688 4.92802 129.455 4.34135 128.988 3.95469C128.535 3.55469 127.835 3.35469 126.888 3.35469H123.508V8.07469H126.888ZM127.808 8.39469L132.168 15.0547H130.268L126.468 9.27469L127.808 8.39469ZM138.757 15.2547C137.81 15.2547 136.963 15.048 136.217 14.6347C135.483 14.2214 134.91 13.628 134.497 12.8547C134.083 12.068 133.877 11.1347 133.877 10.0547C133.877 8.97469 134.083 8.04802 134.497 7.27469C134.91 6.48802 135.477 5.88802 136.197 5.47469C136.917 5.06135 137.737 4.85469 138.657 4.85469C139.59 4.85469 140.383 5.05469 141.037 5.45469C141.703 5.85469 142.21 6.40135 142.557 7.09469C142.903 7.77469 143.077 8.54135 143.077 9.39469C143.077 9.62135 143.07 9.82802 143.057 10.0147C143.043 10.2014 143.023 10.368 142.997 10.5147H134.917V9.09469H142.297L141.477 9.25469C141.477 8.29469 141.21 7.55469 140.677 7.03469C140.157 6.51469 139.47 6.25469 138.617 6.25469C137.963 6.25469 137.397 6.40802 136.917 6.71469C136.45 7.00802 136.083 7.44135 135.817 8.01469C135.563 8.57469 135.437 9.25469 135.437 10.0547C135.437 10.8414 135.57 11.5214 135.837 12.0947C136.103 12.668 136.477 13.108 136.957 13.4147C137.45 13.708 138.037 13.8547 138.717 13.8547C139.45 13.8547 140.043 13.7147 140.497 13.4347C140.963 13.1547 141.337 12.7747 141.617 12.2947L142.877 13.0347C142.623 13.488 142.297 13.8814 141.897 14.2147C141.51 14.548 141.05 14.808 140.517 14.9947C139.997 15.168 139.41 15.2547 138.757 15.2547ZM149.72 15.2547C148.746 15.2547 147.846 15.048 147.02 14.6347C146.206 14.2214 145.58 13.6347 145.14 12.8747L146.5 11.8947C146.793 12.508 147.22 12.988 147.78 13.3347C148.353 13.6814 149.04 13.8547 149.84 13.8547C150.546 13.8547 151.1 13.7214 151.5 13.4547C151.9 13.1747 152.1 12.8147 152.1 12.3747C152.1 12.0947 152.006 11.8414 151.82 11.6147C151.646 11.3747 151.306 11.2014 150.8 11.0947L148.4 10.5947C147.426 10.3947 146.726 10.0614 146.3 9.59469C145.886 9.12802 145.68 8.54802 145.68 7.85469C145.68 7.30802 145.833 6.80802 146.14 6.35469C146.46 5.90135 146.906 5.54135 147.48 5.27469C148.066 4.99469 148.753 4.85469 149.54 4.85469C150.526 4.85469 151.36 5.04802 152.04 5.43469C152.72 5.82135 153.226 6.36802 153.56 7.07469L152.22 7.95469C151.993 7.36802 151.626 6.94135 151.12 6.67469C150.613 6.39469 150.086 6.25469 149.54 6.25469C149.06 6.25469 148.646 6.32135 148.3 6.45469C147.966 6.58802 147.706 6.77469 147.52 7.01469C147.346 7.24135 147.26 7.50135 147.26 7.79469C147.26 8.08802 147.36 8.36135 147.56 8.61469C147.76 8.85469 148.133 9.02802 148.68 9.13469L151.18 9.65469C152.113 9.84135 152.766 10.148 153.14 10.5747C153.513 11.0014 153.7 11.5214 153.7 12.1347C153.7 12.7614 153.533 13.3147 153.2 13.7947C152.866 14.2614 152.4 14.6214 151.8 14.8747C151.2 15.128 150.506 15.2547 149.72 15.2547ZM160.847 15.2547C159.9 15.2547 159.053 15.048 158.307 14.6347C157.573 14.2214 157 13.628 156.587 12.8547C156.173 12.068 155.967 11.1347 155.967 10.0547C155.967 8.97469 156.173 8.04802 156.587 7.27469C157 6.48802 157.567 5.88802 158.287 5.47469C159.007 5.06135 159.827 4.85469 160.747 4.85469C161.68 4.85469 162.473 5.05469 163.127 5.45469C163.793 5.85469 164.3 6.40135 164.647 7.09469C164.993 7.77469 165.167 8.54135 165.167 9.39469C165.167 9.62135 165.16 9.82802 165.147 10.0147C165.133 10.2014 165.113 10.368 165.087 10.5147H157.007V9.09469H164.387L163.567 9.25469C163.567 8.29469 163.3 7.55469 162.767 7.03469C162.247 6.51469 161.56 6.25469 160.707 6.25469C160.053 6.25469 159.487 6.40802 159.007 6.71469C158.54 7.00802 158.173 7.44135 157.907 8.01469C157.653 8.57469 157.527 9.25469 157.527 10.0547C157.527 10.8414 157.66 11.5214 157.927 12.0947C158.193 12.668 158.567 13.108 159.047 13.4147C159.54 13.708 160.127 13.8547 160.807 13.8547C161.54 13.8547 162.133 13.7147 162.587 13.4347C163.053 13.1547 163.427 12.7747 163.707 12.2947L164.967 13.0347C164.713 13.488 164.387 13.8814 163.987 14.2147C163.6 14.548 163.14 14.808 162.607 14.9947C162.087 15.168 161.5 15.2547 160.847 15.2547ZM168.21 15.0547V5.05469H169.51L169.73 6.69469C170.01 6.08135 170.416 5.62135 170.95 5.31469C171.496 5.00802 172.156 4.85469 172.93 4.85469C173.103 4.85469 173.29 4.86802 173.49 4.89469C173.703 4.92135 173.883 4.97469 174.03 5.05469L173.75 6.51469C173.603 6.46135 173.443 6.42135 173.27 6.39469C173.096 6.36802 172.85 6.35469 172.53 6.35469C172.116 6.35469 171.696 6.47469 171.27 6.71469C170.856 6.95469 170.51 7.32135 170.23 7.81469C169.95 8.29469 169.81 8.90802 169.81 9.65469V15.0547H168.21ZM182.994 5.05469H184.674L180.514 15.0547H178.914L174.754 5.05469H176.574L179.734 13.4347L182.994 5.05469ZM190.944 15.2547C189.998 15.2547 189.151 15.048 188.404 14.6347C187.671 14.2214 187.098 13.628 186.684 12.8547C186.271 12.068 186.064 11.1347 186.064 10.0547C186.064 8.97469 186.271 8.04802 186.684 7.27469C187.098 6.48802 187.664 5.88802 188.384 5.47469C189.104 5.06135 189.924 4.85469 190.844 4.85469C191.778 4.85469 192.571 5.05469 193.224 5.45469C193.891 5.85469 194.398 6.40135 194.744 7.09469C195.091 7.77469 195.264 8.54135 195.264 9.39469C195.264 9.62135 195.258 9.82802 195.244 10.0147C195.231 10.2014 195.211 10.368 195.184 10.5147H187.104V9.09469H194.484L193.664 9.25469C193.664 8.29469 193.398 7.55469 192.864 7.03469C192.344 6.51469 191.658 6.25469 190.804 6.25469C190.151 6.25469 189.584 6.40802 189.104 6.71469C188.638 7.00802 188.271 7.44135 188.004 8.01469C187.751 8.57469 187.624 9.25469 187.624 10.0547C187.624 10.8414 187.758 11.5214 188.024 12.0947C188.291 12.668 188.664 13.108 189.144 13.4147C189.638 13.708 190.224 13.8547 190.904 13.8547C191.638 13.8547 192.231 13.7147 192.684 13.4347C193.151 13.1547 193.524 12.7747 193.804 12.2947L195.064 13.0347C194.811 13.488 194.484 13.8814 194.084 14.2147C193.698 14.548 193.238 14.808 192.704 14.9947C192.184 15.168 191.598 15.2547 190.944 15.2547ZM202.207 15.2547C201.381 15.2547 200.621 15.048 199.927 14.6347C199.234 14.2214 198.681 13.628 198.267 12.8547C197.854 12.068 197.647 11.1347 197.647 10.0547C197.647 8.94802 197.867 8.00802 198.307 7.23469C198.747 6.46135 199.327 5.87469 200.047 5.47469C200.767 5.06135 201.541 4.85469 202.367 4.85469C203.194 4.85469 203.907 5.06802 204.507 5.49469C205.121 5.92135 205.527 6.48802 205.727 7.19469L205.527 7.33469V0.454687H207.127V15.0547H205.727L205.587 12.6347L205.807 12.5147C205.714 13.1014 205.487 13.6014 205.127 14.0147C204.781 14.4147 204.347 14.7214 203.827 14.9347C203.321 15.148 202.781 15.2547 202.207 15.2547ZM202.367 13.8547C203.007 13.8547 203.561 13.6947 204.027 13.3747C204.507 13.0547 204.874 12.6014 205.127 12.0147C205.394 11.4147 205.527 10.7147 205.527 9.91469C205.527 9.15469 205.394 8.50135 205.127 7.95469C204.874 7.40802 204.514 6.98802 204.047 6.69469C203.594 6.40135 203.061 6.25469 202.447 6.25469C201.434 6.25469 200.647 6.60135 200.087 7.29469C199.527 7.98802 199.247 8.90802 199.247 10.0547C199.247 11.2014 199.521 12.1214 200.067 12.8147C200.614 13.508 201.381 13.8547 202.367 13.8547ZM211.646 12.6547C212.033 12.6547 212.346 12.7747 212.586 13.0147C212.826 13.2547 212.946 13.568 212.946 13.9547C212.946 14.3414 212.826 14.6547 212.586 14.8947C212.346 15.1347 212.033 15.2547 211.646 15.2547C211.26 15.2547 210.946 15.1347 210.706 14.8947C210.466 14.6547 210.346 14.3414 210.346 13.9547C210.346 13.568 210.466 13.2547 210.706 13.0147C210.946 12.7747 211.26 12.6547 211.646 12.6547ZM222.595 15.0547V13.7547C223.915 12.7814 225.015 11.928 225.895 11.1947C226.789 10.4614 227.502 9.79469 228.035 9.19469C228.569 8.59469 228.949 8.02802 229.175 7.49469C229.402 6.94802 229.515 6.38135 229.515 5.79469C229.515 5.00802 229.262 4.37469 228.755 3.89469C228.262 3.40135 227.582 3.15469 226.715 3.15469C225.809 3.15469 225.082 3.45469 224.535 4.05469C223.989 4.64135 223.669 5.42802 223.575 6.41469L222.175 5.57469C222.295 4.80135 222.542 4.12135 222.915 3.53469C223.302 2.94802 223.815 2.48802 224.455 2.15469C225.109 1.82135 225.882 1.65469 226.775 1.65469C227.455 1.65469 228.062 1.75469 228.595 1.95469C229.142 2.15469 229.609 2.44135 229.995 2.81469C230.382 3.17469 230.675 3.60802 230.875 4.11469C231.089 4.62135 231.195 5.18135 231.195 5.79469C231.195 6.62135 230.995 7.43469 230.595 8.23469C230.195 9.02135 229.535 9.84802 228.615 10.7147C227.695 11.5814 226.449 12.5414 224.875 13.5947V13.6147C225.022 13.6014 225.222 13.5947 225.475 13.5947C225.742 13.5814 226.002 13.5747 226.255 13.5747C226.522 13.5614 226.722 13.5547 226.855 13.5547H231.475V15.0547H222.595ZM238.995 15.2547C237.502 15.2547 236.309 14.6747 235.415 13.5147C234.522 12.3547 234.075 10.668 234.075 8.45469C234.075 6.24135 234.522 4.55469 235.415 3.39469C236.309 2.23469 237.502 1.65469 238.995 1.65469C240.502 1.65469 241.695 2.23469 242.575 3.39469C243.469 4.55469 243.915 6.24135 243.915 8.45469C243.915 10.668 243.469 12.3547 242.575 13.5147C241.695 14.6747 240.502 15.2547 238.995 15.2547ZM238.995 13.8147C239.702 13.8147 240.295 13.6147 240.775 13.2147C241.269 12.8014 241.635 12.1947 241.875 11.3947C242.129 10.5947 242.255 9.61469 242.255 8.45469C242.255 7.29469 242.129 6.31469 241.875 5.51469C241.635 4.71469 241.269 4.11469 240.775 3.71469C240.295 3.30135 239.702 3.09469 238.995 3.09469C238.289 3.09469 237.689 3.30135 237.195 3.71469C236.715 4.11469 236.349 4.71469 236.095 5.51469C235.855 6.31469 235.735 7.29469 235.735 8.45469C235.735 9.61469 235.855 10.5947 236.095 11.3947C236.349 12.1947 236.715 12.8014 237.195 13.2147C237.689 13.6147 238.289 13.8147 238.995 13.8147ZM246.697 15.0547V13.7547C248.017 12.7814 249.117 11.928 249.997 11.1947C250.89 10.4614 251.603 9.79469 252.137 9.19469C252.67 8.59469 253.05 8.02802 253.277 7.49469C253.503 6.94802 253.617 6.38135 253.617 5.79469C253.617 5.00802 253.363 4.37469 252.857 3.89469C252.363 3.40135 251.683 3.15469 250.817 3.15469C249.91 3.15469 249.183 3.45469 248.637 4.05469C248.09 4.64135 247.77 5.42802 247.677 6.41469L246.277 5.57469C246.397 4.80135 246.643 4.12135 247.017 3.53469C247.403 2.94802 247.917 2.48802 248.557 2.15469C249.21 1.82135 249.983 1.65469 250.877 1.65469C251.557 1.65469 252.163 1.75469 252.697 1.95469C253.243 2.15469 253.71 2.44135 254.097 2.81469C254.483 3.17469 254.777 3.60802 254.977 4.11469C255.19 4.62135 255.297 5.18135 255.297 5.79469C255.297 6.62135 255.097 7.43469 254.697 8.23469C254.297 9.02135 253.637 9.84802 252.717 10.7147C251.797 11.5814 250.55 12.5414 248.977 13.5947V13.6147C249.123 13.6014 249.323 13.5947 249.577 13.5947C249.843 13.5814 250.103 13.5747 250.357 13.5747C250.623 13.5614 250.823 13.5547 250.957 13.5547H255.577V15.0547H246.697ZM262.677 15.2547C261.504 15.2547 260.464 14.9814 259.557 14.4347C258.664 13.8747 258.057 13.108 257.737 12.1347L259.337 11.3147C259.497 11.808 259.717 12.2414 259.997 12.6147C260.277 12.9747 260.644 13.2547 261.097 13.4547C261.564 13.6547 262.144 13.7547 262.837 13.7547C263.424 13.7547 263.917 13.648 264.317 13.4347C264.717 13.2214 265.024 12.9347 265.237 12.5747C265.45 12.2014 265.557 11.7747 265.557 11.2947C265.557 10.8147 265.464 10.4147 265.277 10.0947C265.104 9.77469 264.824 9.54135 264.437 9.39469C264.05 9.23469 263.544 9.15469 262.917 9.15469C262.77 9.15469 262.61 9.16135 262.437 9.17469C262.264 9.17469 262.084 9.18802 261.897 9.21469V7.61469C262.017 7.62802 262.13 7.63469 262.237 7.63469C262.357 7.63469 262.464 7.63469 262.557 7.63469C263.53 7.63469 264.224 7.44802 264.637 7.07469C265.05 6.68802 265.257 6.08802 265.257 5.27469C265.257 4.58135 265.044 4.05469 264.617 3.69469C264.19 3.33469 263.584 3.15469 262.797 3.15469C261.957 3.15469 261.317 3.34135 260.877 3.71469C260.437 4.07469 260.09 4.56802 259.837 5.19469L258.317 4.47469C258.53 3.91469 258.85 3.42135 259.277 2.99469C259.704 2.56802 260.217 2.23469 260.817 1.99469C261.43 1.75469 262.104 1.63469 262.837 1.63469C263.757 1.63469 264.517 1.79469 265.117 2.11469C265.717 2.42135 266.164 2.83469 266.457 3.35469C266.764 3.87469 266.917 4.44802 266.917 5.07469C266.917 5.55469 266.85 5.98802 266.717 6.37469C266.584 6.74802 266.397 7.07469 266.157 7.35469C265.93 7.63469 265.67 7.86135 265.377 8.03469C265.084 8.19469 264.77 8.30135 264.437 8.35469V8.39469C264.877 8.40802 265.264 8.49469 265.597 8.65469C265.944 8.81469 266.237 9.02802 266.477 9.29469C266.717 9.56135 266.897 9.86802 267.017 10.2147C267.15 10.548 267.217 10.9014 267.217 11.2747C267.217 12.048 267.024 12.7347 266.637 13.3347C266.264 13.9347 265.737 14.408 265.057 14.7547C264.377 15.088 263.584 15.2547 262.677 15.2547ZM287.874 1.85469V15.0547H285.894L280.374 6.21469L278.974 3.73469H278.954L279.034 5.73469V15.0547H277.514V1.85469H279.494L284.994 10.6547L286.414 13.1947H286.434L286.354 11.1747V1.85469H287.874ZM295.885 4.85469C296.831 4.85469 297.665 5.06135 298.385 5.47469C299.118 5.88802 299.691 6.48802 300.105 7.27469C300.518 8.04802 300.725 8.97469 300.725 10.0547C300.725 11.1347 300.518 12.068 300.105 12.8547C299.691 13.628 299.118 14.2214 298.385 14.6347C297.665 15.048 296.831 15.2547 295.885 15.2547C294.951 15.2547 294.118 15.048 293.385 14.6347C292.651 14.2214 292.078 13.628 291.665 12.8547C291.251 12.068 291.045 11.1347 291.045 10.0547C291.045 8.97469 291.251 8.04802 291.665 7.27469C292.078 6.48802 292.651 5.88802 293.385 5.47469C294.118 5.06135 294.951 4.85469 295.885 4.85469ZM295.885 6.23469C295.205 6.23469 294.625 6.38802 294.145 6.69469C293.665 7.00135 293.291 7.44135 293.025 8.01469C292.771 8.57469 292.645 9.25469 292.645 10.0547C292.645 10.8414 292.771 11.5214 293.025 12.0947C293.291 12.668 293.665 13.108 294.145 13.4147C294.625 13.7214 295.205 13.8747 295.885 13.8747C296.565 13.8747 297.145 13.7214 297.625 13.4147C298.105 13.108 298.471 12.668 298.725 12.0947C298.991 11.5214 299.125 10.8414 299.125 10.0547C299.125 9.25469 298.991 8.57469 298.725 8.01469C298.471 7.44135 298.105 7.00135 297.625 6.69469C297.145 6.38802 296.565 6.23469 295.885 6.23469ZM307.357 15.2547C306.717 15.2547 306.11 15.1347 305.537 14.8947C304.977 14.6547 304.517 14.268 304.157 13.7347C303.81 13.188 303.637 12.4814 303.637 11.6147V5.05469H305.237V11.1947C305.237 12.208 305.457 12.908 305.897 13.2947C306.337 13.668 306.957 13.8547 307.757 13.8547C308.13 13.8547 308.497 13.7947 308.857 13.6747C309.217 13.5414 309.537 13.3414 309.817 13.0747C310.11 12.7947 310.337 12.4414 310.497 12.0147C310.67 11.588 310.757 11.0814 310.757 10.4947V5.05469H312.357V15.0547H310.957L310.857 13.5347C310.51 14.1347 310.037 14.5747 309.437 14.8547C308.85 15.1214 308.157 15.2547 307.357 15.2547ZM316.081 15.0547V5.05469H317.381L317.601 6.69469C317.881 6.08135 318.287 5.62135 318.821 5.31469C319.367 5.00802 320.027 4.85469 320.801 4.85469C320.974 4.85469 321.161 4.86802 321.361 4.89469C321.574 4.92135 321.754 4.97469 321.901 5.05469L321.621 6.51469C321.474 6.46135 321.314 6.42135 321.141 6.39469C320.967 6.36802 320.721 6.35469 320.401 6.35469C319.987 6.35469 319.567 6.47469 319.141 6.71469C318.727 6.95469 318.381 7.32135 318.101 7.81469C317.821 8.29469 317.681 8.90802 317.681 9.65469V15.0547H316.081ZM325.045 3.13469C324.685 3.13469 324.391 3.02802 324.165 2.81469C323.951 2.58802 323.845 2.29469 323.845 1.93469C323.845 1.57469 323.951 1.28802 324.165 1.07469C324.391 0.84802 324.685 0.734687 325.045 0.734687C325.405 0.734687 325.691 0.84802 325.905 1.07469C326.131 1.28802 326.245 1.57469 326.245 1.93469C326.245 2.29469 326.131 2.58802 325.905 2.81469C325.691 3.02802 325.405 3.13469 325.045 3.13469ZM325.845 5.05469V15.0547H324.245V5.05469H325.845ZM333.157 15.2547C332.184 15.2547 331.284 15.048 330.457 14.6347C329.644 14.2214 329.017 13.6347 328.577 12.8747L329.937 11.8947C330.231 12.508 330.657 12.988 331.217 13.3347C331.791 13.6814 332.477 13.8547 333.277 13.8547C333.984 13.8547 334.537 13.7214 334.937 13.4547C335.337 13.1747 335.537 12.8147 335.537 12.3747C335.537 12.0947 335.444 11.8414 335.257 11.6147C335.084 11.3747 334.744 11.2014 334.237 11.0947L331.837 10.5947C330.864 10.3947 330.164 10.0614 329.737 9.59469C329.324 9.12802 329.117 8.54802 329.117 7.85469C329.117 7.30802 329.271 6.80802 329.577 6.35469C329.897 5.90135 330.344 5.54135 330.917 5.27469C331.504 4.99469 332.191 4.85469 332.977 4.85469C333.964 4.85469 334.797 5.04802 335.477 5.43469C336.157 5.82135 336.664 6.36802 336.997 7.07469L335.657 7.95469C335.431 7.36802 335.064 6.94135 334.557 6.67469C334.051 6.39469 333.524 6.25469 332.977 6.25469C332.497 6.25469 332.084 6.32135 331.737 6.45469C331.404 6.58802 331.144 6.77469 330.957 7.01469C330.784 7.24135 330.697 7.50135 330.697 7.79469C330.697 8.08802 330.797 8.36135 330.997 8.61469C331.197 8.85469 331.571 9.02802 332.117 9.13469L334.617 9.65469C335.551 9.84135 336.204 10.148 336.577 10.5747C336.951 11.0014 337.137 11.5214 337.137 12.1347C337.137 12.7614 336.971 13.3147 336.637 13.7947C336.304 14.2614 335.837 14.6214 335.237 14.8747C334.637 15.128 333.944 15.2547 333.157 15.2547ZM340.104 15.0547V0.454687H341.704V6.55469C342.051 5.95469 342.511 5.52135 343.084 5.25469C343.657 4.98802 344.284 4.85469 344.964 4.85469C345.684 4.85469 346.337 4.99469 346.924 5.27469C347.511 5.54135 347.977 5.95469 348.324 6.51469C348.684 7.07469 348.864 7.78802 348.864 8.65469V15.0547H347.264V9.21469C347.264 8.10802 347.024 7.34135 346.544 6.91469C346.077 6.47469 345.497 6.25469 344.804 6.25469C344.324 6.25469 343.844 6.36802 343.364 6.59469C342.884 6.82135 342.484 7.19469 342.164 7.71469C341.857 8.22135 341.704 8.90135 341.704 9.75469V15.0547H340.104ZM361.273 2.21469V12.2947C361.273 12.788 361.413 13.1547 361.693 13.3947C361.973 13.6347 362.333 13.7547 362.773 13.7547C363.159 13.7547 363.493 13.688 363.773 13.5547C364.053 13.4214 364.306 13.2414 364.533 13.0147L365.093 14.3547C364.786 14.6347 364.419 14.8547 363.993 15.0147C363.579 15.1747 363.099 15.2547 362.553 15.2547C362.046 15.2547 361.573 15.168 361.133 14.9947C360.693 14.808 360.339 14.5214 360.073 14.1347C359.819 13.7347 359.686 13.2147 359.673 12.5747V2.65469L361.273 2.21469ZM364.913 5.05469V6.43469H357.673V5.05469H364.913ZM371.472 15.2547C370.525 15.2547 369.678 15.048 368.932 14.6347C368.198 14.2214 367.625 13.628 367.212 12.8547C366.798 12.068 366.592 11.1347 366.592 10.0547C366.592 8.97469 366.798 8.04802 367.212 7.27469C367.625 6.48802 368.192 5.88802 368.912 5.47469C369.632 5.06135 370.452 4.85469 371.372 4.85469C372.305 4.85469 373.098 5.05469 373.752 5.45469C374.418 5.85469 374.925 6.40135 375.272 7.09469C375.618 7.77469 375.792 8.54135 375.792 9.39469C375.792 9.62135 375.785 9.82802 375.772 10.0147C375.758 10.2014 375.738 10.368 375.712 10.5147H367.632V9.09469H375.012L374.192 9.25469C374.192 8.29469 373.925 7.55469 373.392 7.03469C372.872 6.51469 372.185 6.25469 371.332 6.25469C370.678 6.25469 370.112 6.40802 369.632 6.71469C369.165 7.00802 368.798 7.44135 368.532 8.01469C368.278 8.57469 368.152 9.25469 368.152 10.0547C368.152 10.8414 368.285 11.5214 368.552 12.0947C368.818 12.668 369.192 13.108 369.672 13.4147C370.165 13.708 370.752 13.8547 371.432 13.8547C372.165 13.8547 372.758 13.7147 373.212 13.4347C373.678 13.1547 374.052 12.7747 374.332 12.2947L375.592 13.0347C375.338 13.488 375.012 13.8814 374.612 14.2147C374.225 14.548 373.765 14.808 373.232 14.9947C372.712 15.168 372.125 15.2547 371.472 15.2547ZM384.675 8.59469C384.675 7.84802 384.475 7.27469 384.075 6.87469C383.675 6.46135 383.108 6.25469 382.375 6.25469C381.681 6.25469 381.095 6.40802 380.615 6.71469C380.135 7.00802 379.781 7.48802 379.555 8.15469L378.255 7.35469C378.521 6.60802 379.015 6.00802 379.735 5.55469C380.455 5.08802 381.348 4.85469 382.415 4.85469C383.135 4.85469 383.788 4.98135 384.375 5.23469C384.961 5.47469 385.421 5.84802 385.755 6.35469C386.101 6.84802 386.275 7.48802 386.275 8.27469V13.1147C386.275 13.5947 386.528 13.8347 387.035 13.8347C387.288 13.8347 387.535 13.8014 387.775 13.7347L387.695 14.9947C387.428 15.128 387.081 15.1947 386.655 15.1947C386.268 15.1947 385.921 15.1214 385.615 14.9747C385.308 14.828 385.068 14.608 384.895 14.3147C384.721 14.008 384.635 13.628 384.635 13.1747V12.9747L385.035 13.0347C384.875 13.5547 384.601 13.9814 384.215 14.3147C383.828 14.6347 383.395 14.8747 382.915 15.0347C382.435 15.1814 381.961 15.2547 381.495 15.2547C380.908 15.2547 380.361 15.1547 379.855 14.9547C379.348 14.7547 378.941 14.4547 378.635 14.0547C378.341 13.6414 378.195 13.1347 378.195 12.5347C378.195 11.788 378.441 11.1747 378.935 10.6947C379.441 10.2014 380.141 9.86802 381.035 9.69469L384.995 8.91469V10.2347L381.775 10.8947C381.121 11.028 380.635 11.2147 380.315 11.4547C379.995 11.6947 379.835 12.028 379.835 12.4547C379.835 12.868 379.995 13.208 380.315 13.4747C380.648 13.728 381.115 13.8547 381.715 13.8547C382.101 13.8547 382.468 13.808 382.815 13.7147C383.175 13.608 383.495 13.4547 383.775 13.2547C384.055 13.0414 384.275 12.7814 384.435 12.4747C384.595 12.1547 384.675 11.7814 384.675 11.3547V8.59469ZM390.163 15.0547V5.05469H391.563L391.663 6.61469C392.023 6.00135 392.489 5.55469 393.063 5.27469C393.649 4.99469 394.249 4.85469 394.863 4.85469C395.569 4.85469 396.236 5.01469 396.863 5.33469C397.489 5.65469 397.969 6.14802 398.303 6.81469C398.516 6.36135 398.816 5.99469 399.203 5.71469C399.589 5.42135 400.009 5.20802 400.463 5.07469C400.929 4.92802 401.369 4.85469 401.783 4.85469C402.423 4.85469 403.029 4.98802 403.603 5.25469C404.189 5.52135 404.669 5.93469 405.043 6.49469C405.416 7.05469 405.603 7.77469 405.603 8.65469V15.0547H404.003V8.81469C404.003 7.90802 403.776 7.25469 403.323 6.85469C402.869 6.45469 402.309 6.25469 401.643 6.25469C401.123 6.25469 400.636 6.38135 400.183 6.63469C399.729 6.88802 399.363 7.26135 399.083 7.75469C398.816 8.24802 398.683 8.85469 398.683 9.57469V15.0547H397.083V8.81469C397.083 7.90802 396.856 7.25469 396.403 6.85469C395.949 6.45469 395.389 6.25469 394.723 6.25469C394.283 6.25469 393.829 6.37469 393.363 6.61469C392.909 6.84135 392.529 7.20802 392.223 7.71469C391.916 8.22135 391.763 8.88802 391.763 9.71469V15.0547H390.163Z" fill="black"/>
</svg>
